<svg width="234" height="311" viewBox="0 0 234 311" fill="none" xmlns="http://www.w3.org/2000/svg">
<g clip-path="url(#clip0_608_125217)">
<path d="M113.06 120.486H77.6118V142.862H113.06V120.486Z" fill="#8B7F7C"/>
<path d="M57.827 155.474H22.3784V177.849H57.827V155.474Z" fill="#8B7F7C"/>
<path d="M216.688 127.81V80.2112H189.896V49.2925H171.759V80.2112H144.967V127.81H130.128V20.8148H100.038V10.6442H60.0552V0.473633H20.4847V10.6442H-17.0248V20.8148H-49.588V127.403H-66.9V79.8043H-93.6925V48.8857H-111.829V79.8043H-138.622V127.403H-155.934V296.235H-116.363V236.432H-89.1584V296.235H17.1872V226.668H63.3527V296.235H127.655V296.642H167.225V236.838H194.43V296.642H234V127.81H216.688ZM-141.713 148.151H-126.05V160.356H-141.713V148.151ZM-141.507 182.324H-125.844V194.529H-141.507V182.324ZM-125.637 228.702H-141.301V216.497H-125.637V228.702ZM-84.6243 118.453H-120.897V111.13H-84.6243V118.453ZM-84.6243 107.875H-120.897V100.552H-84.6243V107.875ZM-84.6243 97.2978H-120.897V89.975H-84.6243V97.2978ZM-79.4719 148.151H-63.8086V160.356H-79.4719V148.151ZM-79.2658 182.324H-63.6025V194.529H-79.2658V182.324ZM-63.3964 228.702H-79.0597V216.497H-63.3964V228.702ZM0.699493 208.361H-28.154V195.749H0.699493V208.361ZM0.699493 172.153H-28.154V159.542H0.699493V172.153ZM0.699493 135.946H-28.154V123.335H0.699493V135.946ZM0.699493 99.7387H-28.154V87.1272H0.699493V99.7387ZM0.699493 63.5314H-28.154V50.9198H0.699493V63.5314ZM54.6967 208.361H25.8432V195.749H54.6967V208.361ZM54.6967 172.153H25.8432V159.542H54.6967V172.153ZM54.6967 135.946H25.8432V123.335H54.6967V135.946ZM54.6967 99.7387H25.8432V87.1272H54.6967V99.7387ZM54.6967 63.5314H25.8432V50.9198H54.6967V63.5314ZM108.694 208.361H79.8404V195.749H108.694V208.361ZM108.694 172.153H79.8404V159.542H108.694V172.153ZM108.694 135.946H79.8404V123.335H108.694V135.946ZM108.694 99.7387H79.8404V87.1272H108.694V99.7387ZM108.694 63.5314H79.8404V50.9198H108.694V63.5314ZM141.875 148.558H157.539V160.762H141.875V148.558ZM142.081 182.731H157.745V194.936H142.081V182.731ZM157.951 229.109H142.288V216.904H157.951V229.109ZM198.964 118.859H162.691V111.537H198.964V118.859ZM198.964 108.282H162.691V100.959H198.964V108.282ZM198.964 97.7046H162.691V90.3818H198.964V97.7046ZM204.116 148.558H219.78V160.762H204.116V148.558ZM204.322 182.731H219.986V194.936H204.322V182.731ZM220.192 229.109H204.529V216.904H220.192V229.109Z" fill="#F2F2F2"/>
<path d="M221.3 253.807C221.185 255.416 221.004 257.216 220.725 259.108L225.764 253.592L225.792 253.684C225.484 252.356 224.988 251.078 224.318 249.888L224.35 249.975L221.3 253.807Z" fill="#8B7F7C"/>
<path d="M221.32 253.524L224.275 249.813C223.646 248.68 222.737 247.724 221.632 247.033C221.578 247.001 221.523 246.971 221.469 246.941C221.485 247.38 221.562 249.953 221.32 253.524Z" fill="#8B7F7C"/>
<path d="M218.654 268.075C218.524 268.465 218.39 268.848 218.251 269.224L225.673 264.93L225.683 265.038C225.838 264.37 225.967 263.702 226.071 263.034L218.66 268.124L218.654 268.075Z" fill="#8B7F7C"/>
<path d="M219.686 264.471L226.37 259.03L226.389 259.132C226.412 257.333 226.22 255.537 225.815 253.783L220.68 259.404C220.41 261.176 220.079 262.865 219.686 264.471Z" fill="#8B7F7C"/>
<path d="M220.565 259.298L212.568 250.49L212.61 250.391C211.859 251.435 211.216 252.552 210.691 253.725L219.818 263.315C220.131 261.916 220.375 260.56 220.565 259.298Z" fill="#8B7F7C"/>
<path d="M210.605 253.922L210.605 253.922C210.62 253.89 210.632 253.855 210.646 253.822L210.605 253.922Z" fill="#8B7F7C"/>
<path d="M219.765 263.548L210.605 253.923C210.45 254.273 210.302 254.633 210.16 255.003L219.522 264.567C219.607 264.225 219.688 263.886 219.765 263.548Z" fill="#8B7F7C"/>
<path d="M210.16 255.003L210.119 255.103C210.132 255.069 210.147 255.037 210.16 255.003L210.16 255.003Z" fill="#8B7F7C"/>
<path d="M226.09 262.906C226.272 261.695 226.372 260.474 226.387 259.25L219.613 264.764C219.345 265.833 219.049 266.861 218.727 267.848L226.076 262.801L226.09 262.906Z" fill="#8B7F7C"/>
<path d="M208.946 263.592L216.36 273.14C216.97 271.978 217.508 270.78 217.972 269.555L208.924 260.176C208.835 261.348 208.825 262.525 208.894 263.699L208.946 263.592Z" fill="#8B7F7C"/>
<path d="M221.333 246.933L221.399 246.903C219.775 246.047 218.017 246.139 216.333 247.007L221.189 253.517C221.45 249.653 221.335 246.971 221.333 246.933Z" fill="#8B7F7C"/>
<path d="M218.011 269.863C217.585 270.966 217.099 272.045 216.555 273.096L224.013 269.287L224.021 269.393C224.582 268.456 225.022 267.453 225.328 266.407C225.447 265.995 225.555 265.583 225.653 265.169L218.143 269.515C218.099 269.631 218.056 269.748 218.011 269.863Z" fill="#8B7F7C"/>
<path d="M221.169 253.805L216.201 247.146L216.248 247.051C214.826 247.863 213.604 248.975 212.67 250.309L220.603 259.045C220.877 257.175 221.055 255.396 221.169 253.805Z" fill="#8B7F7C"/>
<path d="M218.053 269.34C218.606 267.851 219.078 266.334 219.465 264.795L210.08 255.208C209.856 255.807 209.651 256.43 209.464 257.077C209.205 258.004 209.032 258.953 208.947 259.912L218.046 269.344L218.053 269.34Z" fill="#8B7F7C"/>
<path d="M227.693 279.683C226.564 280.85 225.262 282.122 223.825 283.404L231.271 282.328L231.232 282.416C231.853 281.2 232.296 279.903 232.55 278.564L232.519 278.652L227.693 279.683Z" fill="#8B7F7C"/>
<path d="M232.326 274.675C232.305 274.616 232.282 274.559 232.259 274.502C231.989 274.85 230.385 276.881 227.891 279.478L232.565 278.48C232.813 277.212 232.73 275.903 232.326 274.675Z" fill="#8B7F7C"/>
<path d="M216.434 289.006C216.081 289.225 215.73 289.435 215.381 289.638L223.872 291.002L223.811 291.092C224.362 290.675 224.893 290.242 225.404 289.793L216.407 289.048L216.434 289.006Z" fill="#8B7F7C"/>
<path d="M219.558 286.88L228.222 286.898L228.171 286.988C229.351 285.617 230.364 284.113 231.186 282.508L223.598 283.604C222.245 284.799 220.899 285.891 219.558 286.88Z" fill="#8B7F7C"/>
<path d="M216.637 288.878L225.559 289.617L225.502 289.707C226.425 288.889 227.291 288.011 228.094 287.078L219.313 287.061C218.415 287.715 217.523 288.321 216.637 288.878Z" fill="#8B7F7C"/>
<path d="M205.711 293.235C205.774 293.172 205.841 293.104 205.907 293.037C207.726 292.751 209.503 292.249 211.201 291.544L211.444 285.198C211.515 285.036 211.585 284.874 211.653 284.71L211.395 291.463C212.615 290.952 213.803 290.368 214.953 289.716L214.124 277.919C214.188 277.886 214.253 277.853 214.319 277.819L215.146 289.601L215.154 289.602C216.543 288.803 217.886 287.932 219.179 286.99L218.277 275.381C218.341 275.335 218.405 275.29 218.469 275.243L219.371 286.851C219.657 286.642 219.939 286.431 220.216 286.22L219.472 274.468C219.535 274.416 219.599 274.365 219.663 274.312L220.407 286.073C221.553 285.192 222.617 284.302 223.579 283.449L223.111 271.631L223.208 271.581C222.876 271.667 222.538 271.769 222.197 271.879C222.838 271.157 223.415 270.381 223.92 269.561L216.39 273.406C215.869 274.383 215.283 275.325 214.636 276.226C214.501 276.352 214.366 276.477 214.234 276.608L214.244 276.749C214.182 276.829 214.121 276.909 214.059 276.988L214.046 276.797C213.951 276.894 213.858 276.995 213.764 277.094C214.717 275.919 215.554 274.657 216.263 273.323L208.903 263.846C208.953 264.693 209.037 265.546 209.144 266.391C208.461 265.295 207.631 264.294 206.677 263.416L206.735 263.489L205.034 268.064C205.428 269.63 205.82 271.397 206.147 273.281L209.17 266.591C209.184 266.695 209.199 266.799 209.213 266.903L206.198 273.577C206.496 275.344 206.71 277.051 206.839 278.698L210.458 273.087C210.479 273.167 210.499 273.248 210.52 273.328L206.862 278.999C206.941 280.098 206.982 281.166 206.985 282.203L211.409 276.441C211.433 276.517 211.456 276.591 211.479 276.663L207.008 282.486L206.986 282.441C206.985 282.852 206.977 283.257 206.963 283.657L211.954 278.111C211.981 278.188 212.005 278.26 212.028 278.325L206.951 283.967C206.946 284.091 206.941 284.215 206.935 284.338C206.875 285.517 206.751 286.691 206.562 287.857L207.044 287.375C206.952 287.562 206.864 287.746 206.777 287.928L206.503 288.202C206.472 288.38 206.436 288.554 206.401 288.729C206.3 288.948 206.203 289.162 206.109 289.371C206.199 288.97 206.284 288.568 206.356 288.162L196.388 281.394C198.988 287.961 203.886 294.207 204.199 294.604C204.454 294.135 204.685 293.652 204.897 293.159C204.959 293.153 205.021 293.147 205.082 293.141C205.057 293.202 205.03 293.261 205.004 293.321C204.973 293.324 204.942 293.329 204.911 293.332C204.935 293.339 204.964 293.347 204.99 293.354C204.841 293.698 204.686 294.037 204.519 294.364C204.737 294.171 205.068 293.866 205.465 293.478C207.809 294.069 214.123 295.332 219.53 293.466L211.246 291.688C209.473 292.428 207.614 292.948 205.711 293.235ZM211.532 282.889L211.73 282.691L211.719 282.988L211.52 283.187L211.532 282.889Z" fill="#8B7F7C"/>
<path d="M232.161 274.41L232.231 274.429C231.533 272.747 230.12 271.711 228.261 271.319L227.794 279.39C230.493 276.579 232.137 274.44 232.161 274.41Z" fill="#8B7F7C"/>
<path d="M214.783 289.979C213.743 290.561 212.671 291.086 211.573 291.552L219.778 293.314L219.716 293.4C220.754 293.033 221.741 292.536 222.653 291.924C223.01 291.681 223.36 291.431 223.703 291.174L215.11 289.794C215.001 289.856 214.892 289.919 214.783 289.979Z" fill="#8B7F7C"/>
<path d="M223.77 283.28C225.19 282.012 226.477 280.754 227.592 279.6L228.07 271.344L228.167 271.3C226.547 271.031 224.887 271.119 223.306 271.558L223.77 283.28Z" fill="#8B7F7C"/>
<path d="M206.612 263.358C205.659 262.473 204.495 261.841 203.228 261.521C203.166 261.507 203.105 261.495 203.044 261.483C203.197 261.895 204.076 264.319 204.964 267.789L206.612 263.358Z" fill="#8B7F7C"/>
<path d="M206.055 273.51L195.69 267.574L195.7 267.466C195.312 268.689 195.05 269.947 194.919 271.222L206.602 277.559C206.461 276.132 206.269 274.769 206.055 273.51Z" fill="#8B7F7C"/>
<path d="M194.814 272.601L194.807 272.709C194.808 272.672 194.813 272.637 194.814 272.601L194.814 272.601Z" fill="#8B7F7C"/>
<path d="M194.899 271.437L194.899 271.437C194.903 271.402 194.904 271.364 194.907 271.329L194.899 271.437Z" fill="#8B7F7C"/>
<path d="M206.626 277.797L194.9 271.438C194.862 271.818 194.834 272.205 194.815 272.601L206.714 278.84C206.688 278.489 206.658 278.142 206.626 277.797Z" fill="#8B7F7C"/>
<path d="M206.8 284.057L195.259 277.897C195.541 279.04 195.9 280.162 196.334 281.257L196.349 281.14L206.391 287.958C206.606 286.667 206.743 285.364 206.8 284.057Z" fill="#8B7F7C"/>
<path d="M202.913 261.518L202.967 261.47C201.154 261.151 199.511 261.775 198.181 263.114L204.838 267.824C203.876 264.07 202.926 261.554 202.913 261.518Z" fill="#8B7F7C"/>
<path d="M204.909 268.103L198.099 263.285L198.113 263.181C197.016 264.387 196.202 265.818 195.731 267.371L206.011 273.259C205.687 271.396 205.299 269.65 204.909 268.103Z" fill="#8B7F7C"/>
<path d="M206.811 283.827C206.87 282.242 206.844 280.656 206.73 279.074L194.802 272.819C194.777 273.457 194.777 274.112 194.802 274.784C194.845 275.746 194.978 276.701 195.198 277.639L206.805 283.833L206.811 283.827Z" fill="#8B7F7C"/>
<path d="M-155.934 296.234H234V301.741C234 304.057 233.068 306.278 231.409 307.916C229.75 309.553 227.499 310.473 225.153 310.473H-147.086C-149.433 310.473 -151.683 309.553 -153.342 307.916C-155.001 306.278 -155.934 304.057 -155.934 301.741V296.234Z" fill="#2F2E41"/>
<path d="M234 291.76H-155.934V299.489H234V291.76Z" fill="#3F3D56"/>
<path d="M146.262 27.312L150.74 30.115L148.021 25.2357C148.791 24.6292 149.744 24.2935 150.73 24.2817C150.754 24.2817 150.778 24.2819 150.802 24.2823C151.113 24.2872 151.424 24.2645 151.731 24.2145L153.248 25.1643L152.598 23.9968C153.673 23.6267 154.602 22.9307 155.253 22.0081L157.969 23.7083L156.253 20.6288C157.842 18.7468 159.983 17.5928 162.339 17.5928C165.164 17.5928 167.68 19.2509 169.305 21.8343C169.785 22.6073 170.464 23.2411 171.272 23.6714C172.081 24.1017 172.991 24.3132 173.909 24.2844C173.959 24.2826 174.01 24.2817 174.061 24.2817C177.179 24.2817 179.707 27.7714 179.707 32.0761C179.707 36.3809 177.179 39.8706 174.061 39.8706C173.375 39.8681 172.7 39.7013 172.094 39.3847C171.032 38.8755 169.872 38.5999 168.692 38.5772C167.512 38.5544 166.341 38.7849 165.26 39.2528C164.347 39.6578 163.357 39.8683 162.356 39.8706C161.355 39.8729 160.364 39.6669 159.449 39.266C158.377 38.8071 157.217 38.5811 156.048 38.6034C154.879 38.6257 153.729 38.8958 152.676 39.3953C152.075 39.7052 151.407 39.8682 150.73 39.8706C147.611 39.8706 145.083 36.3809 145.083 32.0762C145.065 30.4156 145.47 28.7773 146.262 27.312Z" fill="#F2F2F2"/>
<path d="M158.941 233.923H165.318V242.913C164.48 242.913 163.651 242.75 162.877 242.434C162.104 242.118 161.401 241.654 160.809 241.07C160.217 240.485 159.747 239.792 159.427 239.028C159.106 238.265 158.941 237.446 158.941 236.62V233.923Z" fill="#2F2E41"/>
<path d="M155.222 286.59L154.767 288.838H157.954L158.106 286.59H155.222Z" fill="#A0616A"/>
<path d="M155.222 288.388C155.222 288.388 154.615 287.938 154.311 288.238C154.007 288.537 152.945 294.381 152.793 294.531C152.641 294.681 148.087 296.928 149.149 297.078C150.212 297.228 154.311 297.378 154.918 297.078C155.525 296.778 157.195 293.931 157.195 293.931V296.479H157.499C157.499 296.479 157.803 293.782 158.562 293.032C159.321 292.283 157.954 289.736 157.954 289.736C157.954 289.736 158.258 288.088 158.106 288.088C157.954 288.088 155.222 288.388 155.222 288.388Z" fill="#8B7F7C"/>
<path d="M164.634 285.017L164.178 287.264H167.366L167.518 285.017H164.634Z" fill="#A0616A"/>
<path d="M160.99 270.408C160.99 270.408 162.508 274.903 162.812 275.353C163.116 275.802 164.178 284.193 164.178 284.193C164.178 284.193 163.116 285.841 164.482 285.991C165.848 286.141 165.241 285.692 166.152 285.991C166.399 286.084 166.665 286.118 166.929 286.092C167.192 286.066 167.446 285.98 167.67 285.841C167.67 285.841 168.125 284.942 167.822 284.643C167.518 284.343 168.125 276.552 168.125 276.552L167.215 273.855L166.455 265.314C166.455 265.314 167.366 263.067 166.911 262.467C166.455 261.868 164.937 262.917 164.937 262.917L160.99 270.408Z" fill="#2F2E41"/>
<path d="M159.017 258.721C159.017 258.721 158.562 263.515 158.258 263.815C157.954 264.115 154.615 272.505 154.615 272.505C154.615 272.505 153.704 273.554 154.007 277.45C154.311 281.346 155.07 285.241 155.07 285.241C155.07 285.241 154.463 287.489 155.525 287.489C156.588 287.489 157.043 286.89 157.499 287.339C157.954 287.789 158.258 287.339 158.41 287.039C158.562 286.74 159.169 285.691 159.169 285.391C159.169 285.092 159.776 277.45 159.776 277.45C159.776 277.45 164.786 266.512 165.241 265.913C165.697 265.313 168.277 262.017 168.126 259.77L159.017 258.721Z" fill="#2F2E41"/>
<path d="M162.812 238.492C164.573 238.492 166 237.084 166 235.346C166 233.608 164.573 232.199 162.812 232.199C161.051 232.199 159.624 233.608 159.624 235.346C159.624 237.084 161.051 238.492 162.812 238.492Z" fill="#A0616A"/>
<path d="M162.205 238.043C162.205 238.043 163.42 240.74 163.571 241.489C163.723 242.239 166.608 239.991 166.608 239.991C166.608 239.991 165.09 237.444 165.545 236.245L162.205 238.043Z" fill="#A0616A"/>
<path d="M167.063 239.541C167.063 239.541 164.786 237.893 163.116 241.339C161.446 244.786 160.991 244.636 160.991 244.636C160.991 244.636 159.017 245.235 159.624 249.43C160.232 253.626 157.651 259.17 158.713 259.469C159.776 259.769 169.644 261.417 169.644 260.219C169.644 259.02 168.733 254.375 169.492 251.528C170.251 248.681 168.429 238.792 167.063 239.541Z" fill="#3F3D56"/>
<path d="M164.786 240.291C164.786 240.291 162.964 242.988 163.116 245.086C163.268 247.183 163.268 248.532 163.268 248.532C163.268 248.532 160.232 262.916 160.839 262.916C161.446 262.916 163.268 263.665 163.42 263.216C163.572 262.766 167.367 253.626 167.367 253.626C167.367 253.626 168.278 244.486 167.215 242.389C166.152 240.291 164.786 240.291 164.786 240.291Z" fill="#3F3D56"/>
<path d="M161.142 262.466C161.142 262.466 159.624 267.56 161.75 267.71C163.875 267.86 162.661 262.765 162.661 262.765L161.142 262.466Z" fill="#A0616A"/>
<path d="M165.183 286.096C165.183 286.096 164.652 285.703 164.386 285.965C164.12 286.228 163.189 291.345 163.056 291.476C162.923 291.607 158.935 293.576 159.866 293.707C160.796 293.838 164.386 293.969 164.918 293.707C165.449 293.444 166.912 290.951 166.912 290.951V293.182H167.178C167.178 293.182 167.444 290.82 168.108 290.164C168.773 289.508 167.576 287.277 167.576 287.277C167.576 287.277 167.842 285.834 167.709 285.834C167.576 285.834 165.183 286.096 165.183 286.096Z" fill="#8B7F7C"/>
<path d="M161.236 233.285C161.337 233.163 161.47 233.07 161.62 233.017C161.761 232.991 161.905 233.004 162.039 233.052C162.991 233.326 163.817 233.919 164.374 234.728C164.483 234.934 164.645 235.108 164.845 235.231C164.975 235.269 165.102 235.317 165.225 235.374C165.58 235.605 165.369 236.142 165.165 236.51C164.642 237.458 164.401 238.532 164.468 239.608C164.464 239.796 164.52 239.979 164.628 240.133C164.8 240.29 165.025 240.379 165.259 240.382C165.996 240.473 166.738 240.512 167.481 240.499C168.207 240.486 169.013 240.385 169.484 239.838C169.99 239.251 169.911 238.351 169.582 237.652C169.253 236.953 168.717 236.368 168.337 235.695C167.976 234.983 167.692 234.236 167.488 233.466C167.224 232.484 166.8 231.55 166.232 230.703C165.946 230.28 165.574 229.921 165.14 229.646C164.707 229.372 164.22 229.189 163.712 229.108C162.333 228.956 161.061 229.794 159.953 230.618C158.708 231.543 157.383 232.688 157.283 234.222C157.202 235.466 157.959 236.591 158.354 237.774C158.964 239.601 158.709 241.585 158.446 243.491C159.571 242.826 160.842 241.903 160.769 240.612C160.719 239.741 160.053 239.046 159.638 238.275C158.499 236.156 159.798 234.735 161.236 233.285Z" fill="#2F2E41"/>
<path d="M206.068 248.598C207.033 246.936 207.532 245.05 207.513 243.135C207.513 238.198 204.415 234.195 200.593 234.195C196.772 234.195 193.674 238.198 193.674 243.135C193.655 245.05 194.154 246.936 195.119 248.598C194.172 250.267 193.674 252.148 193.674 254.061C193.674 255.974 194.172 257.856 195.119 259.525C194.172 261.194 193.674 263.075 193.674 264.988C193.674 266.901 194.172 268.782 195.119 270.451C194.172 272.12 193.674 274.001 193.674 275.914C193.674 277.827 194.172 279.708 195.119 281.377C194.154 283.04 193.655 284.925 193.674 286.841C193.674 291.778 196.772 295.78 200.593 295.78C204.415 295.78 207.513 291.778 207.513 286.841C207.532 284.925 207.033 283.04 206.068 281.377C207.015 279.708 207.513 277.827 207.513 275.914C207.513 274.001 207.015 272.12 206.068 270.451C207.015 268.782 207.513 266.901 207.513 264.988C207.513 263.075 207.015 261.194 206.068 259.525C207.015 257.856 207.513 255.974 207.513 254.061C207.513 252.148 207.015 250.267 206.068 248.598Z" fill="#3F3D56"/>
<path d="M200.593 241.149C204.415 241.149 207.513 237.147 207.513 232.209C207.513 227.272 204.415 223.27 200.593 223.27C196.772 223.27 193.674 227.272 193.674 232.209C193.674 237.147 196.772 241.149 200.593 241.149Z" fill="#3F3D56"/>
<path d="M200.593 230.222C204.415 230.222 207.513 226.22 207.513 221.283C207.513 216.345 204.415 212.343 200.593 212.343C196.772 212.343 193.674 216.345 193.674 221.283C193.674 226.22 196.772 230.222 200.593 230.222Z" fill="#3F3D56"/>
<path d="M226.495 146.51C227.441 145.322 228.302 144.071 229.072 142.766L210.892 139.819L230.554 139.963C232.441 135.913 233.47 131.525 233.578 127.068C233.687 122.612 232.874 118.18 231.187 114.045L204.807 127.551L229.136 109.901C226.857 106.013 223.791 102.631 220.129 99.9639C216.468 97.2969 212.289 95.4027 207.853 94.3993C203.418 93.3958 198.82 93.3045 194.348 94.1311C189.875 94.9577 185.622 96.6845 181.855 99.2039C178.088 101.723 174.887 104.981 172.451 108.775C170.015 112.569 168.397 116.817 167.697 121.255C166.997 125.693 167.231 130.225 168.383 134.57C169.536 138.915 171.582 142.979 174.395 146.51C172.922 148.358 171.655 150.358 170.616 152.475L194.215 164.576L169.052 156.241C167.285 161.396 166.848 166.904 167.781 172.268C168.714 177.631 170.987 182.681 174.395 186.959C170.55 191.784 168.158 197.579 167.493 203.683C166.828 209.786 167.916 215.951 170.633 221.473C173.351 226.995 177.588 231.651 182.86 234.908C188.131 238.165 194.226 239.893 200.445 239.893C206.665 239.893 212.759 238.165 218.031 234.908C223.303 231.651 227.54 226.995 230.258 221.473C232.975 215.951 234.063 209.786 233.398 203.683C232.733 197.579 230.341 191.784 226.495 186.959C231.09 181.193 233.588 174.07 233.588 166.734C233.588 159.398 231.09 152.276 226.495 146.51V146.51Z" fill="#F2F2F2"/>
<path d="M167.303 166.735C167.291 174.072 169.791 181.199 174.395 186.959C170.55 191.784 168.158 197.58 167.493 203.684C166.828 209.787 167.916 215.952 170.633 221.474C173.351 226.996 177.588 231.652 182.86 234.909C188.131 238.166 194.226 239.894 200.445 239.894C206.665 239.894 212.759 238.166 218.031 234.909C223.303 231.652 227.54 226.996 230.258 221.474C232.975 215.952 234.063 209.787 233.398 203.684C232.733 197.58 230.341 191.784 226.495 186.959C230.937 181.394 167.303 163.064 167.303 166.735Z" fill="#F2F2F2"/>
<path d="M226.495 146.51C227.441 145.322 228.302 144.071 229.072 142.766L210.892 139.819L230.554 139.963C232.441 135.913 233.47 131.525 233.578 127.068C233.687 122.612 232.874 118.18 231.187 114.045L204.807 127.551L229.136 109.901C226.857 106.013 223.791 102.631 220.129 99.9639C216.468 97.2969 212.289 95.4027 207.853 94.3993C203.418 93.3958 198.82 93.3045 194.348 94.1311C189.875 94.9577 185.622 96.6845 181.855 99.2039C178.088 101.723 174.887 104.981 172.451 108.775C170.015 112.569 168.397 116.817 167.697 121.255C166.997 125.693 167.231 130.225 168.383 134.57C169.536 138.915 171.582 142.979 174.395 146.51C172.922 148.358 171.655 150.358 170.616 152.475L194.215 164.576L169.052 156.241C167.285 161.396 166.848 166.904 167.781 172.268C168.714 177.631 170.987 182.681 174.395 186.959C170.55 191.784 168.158 197.579 167.493 203.683C166.828 209.786 167.916 215.951 170.633 221.473C173.351 226.995 177.588 231.651 182.86 234.908C188.131 238.165 194.226 239.893 200.445 239.893C206.665 239.893 212.759 238.165 218.031 234.908C223.303 231.651 227.54 226.995 230.258 221.473C232.975 215.951 234.063 209.786 233.398 203.683C232.733 197.579 230.341 191.784 226.495 186.959C231.09 181.193 233.588 174.07 233.588 166.734C233.588 159.398 231.09 152.276 226.495 146.51V146.51Z" fill="#57B894"/>
<path opacity="0.1" d="M167.303 166.735C167.291 174.072 169.791 181.199 174.395 186.959C170.55 191.784 168.158 197.58 167.493 203.684C166.828 209.787 167.916 215.952 170.633 221.474C173.351 226.996 177.588 231.652 182.86 234.909C188.131 238.166 194.226 239.894 200.445 239.894C206.665 239.894 212.759 238.166 218.031 234.909C223.303 231.652 227.54 226.996 230.258 221.474C232.975 215.952 234.063 209.787 233.398 203.684C232.733 197.58 230.341 191.784 226.495 186.959C230.937 181.394 167.303 163.064 167.303 166.735Z" fill="black"/>
<path d="M57.8456 144.715L41.4007 160.945L33.609 153.256L30.5757 156.25L41.3904 166.923L60.8793 147.709L57.8456 144.715Z" fill="#57B894"/>
<path d="M110.194 107.693L93.7488 123.924L85.9572 116.234L82.9238 119.228L93.7385 129.902L113.227 110.687L110.194 107.693Z" fill="#57B894"/>
</g>
<defs>
<clipPath id="clip0_608_125217">
<rect width="415" height="310" fill="white" transform="translate(-181 0.473633)"/>
</clipPath>
</defs>
</svg>

