<svg width="253" height="311" viewBox="0 0 253 311" fill="none" xmlns="http://www.w3.org/2000/svg">
<g clip-path="url(#clip0_608_125334)">
<path d="M238.791 155.474H203.428V177.849H238.791V155.474Z" fill="#8B7F7C"/>
<path d="M397.27 127.81V80.2112H370.542V49.2925H352.449V80.2112H325.721V127.81H310.918V20.8148H280.901V10.6442H241.014V0.473633H201.539V10.6442H164.12V20.8148H131.635V127.403H114.365V79.8043H87.637V48.8857H69.5442V79.8043H42.8163V127.403H25.5459V296.235H65.021V236.432H92.1602V296.235H198.25V226.668H244.304V296.235H308.451V296.642H347.926V236.838H375.065V296.642H414.54V127.81H397.27ZM39.7323 148.151H55.3578V160.356H39.7323V148.151ZM39.9379 182.324H55.5634V194.529H39.9379V182.324ZM55.769 228.702H40.1435V216.497H55.769V228.702ZM96.6833 118.453H60.4978V111.13H96.6833V118.453ZM96.6833 107.875H60.4978V100.552H96.6833V107.875ZM96.6833 97.2978H60.4978V89.975H96.6833V97.2978ZM101.823 148.151H117.449V160.356H101.823V148.151ZM102.029 182.324H117.654V194.529H102.029V182.324ZM117.86 228.702H102.235V216.497H117.86V228.702ZM181.802 208.361H153.018V195.749H181.802V208.361ZM181.802 172.153H153.018V159.542H181.802V172.153ZM181.802 135.946H153.018V123.335H181.802V135.946ZM181.802 99.7387H153.018V87.1272H181.802V99.7387ZM181.802 63.5314H153.018V50.9198H181.802V63.5314ZM235.669 208.361H206.885V195.749H235.669V208.361ZM235.669 172.153H206.885V159.542H235.669V172.153ZM235.669 135.946H206.885V123.335H235.669V135.946ZM235.669 99.7387H206.885V87.1272H235.669V99.7387ZM235.669 63.5314H206.885V50.9198H235.669V63.5314ZM289.536 208.361H260.752V195.749H289.536V208.361ZM289.536 172.153H260.752V159.542H289.536V172.153ZM289.536 135.946H260.752V123.335H289.536V135.946ZM289.536 99.7387H260.752V87.1272H289.536V99.7387ZM289.536 63.5314H260.752V50.9198H289.536V63.5314ZM322.637 148.558H338.263V160.762H322.637V148.558ZM322.843 182.731H338.468V194.936H322.843V182.731ZM338.674 229.109H323.048V216.904H338.674V229.109ZM379.588 118.859H343.403V111.537H379.588V118.859ZM379.588 108.282H343.403V100.959H379.588V108.282ZM379.588 97.7046H343.403V90.3818H379.588V97.7046ZM384.728 148.558H400.354V160.762H384.728V148.558ZM384.934 182.731H400.559V194.936H384.934V182.731ZM400.765 229.109H385.139V216.904H400.765V229.109Z" fill="#F2F2F2"/>
<path d="M49.884 255.027C49.7689 256.637 49.5889 258.437 49.3105 260.328L54.3378 254.812L54.3654 254.905C54.058 253.577 53.563 252.299 52.895 251.108L52.9271 251.196L49.884 255.027Z" fill="#8B7F7C"/>
<path d="M49.9038 254.744L52.8517 251.032C52.2245 249.9 51.3174 248.944 50.215 248.253C50.161 248.221 50.1067 248.191 50.0524 248.161C50.0685 248.599 50.1457 251.173 49.9038 254.744Z" fill="#8B7F7C"/>
<path d="M47.2441 269.296C47.1145 269.686 46.9808 270.069 46.8428 270.445L54.2463 266.15L54.2566 266.258C54.4113 265.59 54.5402 264.923 54.6431 264.255L47.2508 269.345L47.2441 269.296Z" fill="#8B7F7C"/>
<path d="M48.2734 265.691L54.9413 260.251L54.9603 260.352C54.9838 258.554 54.7919 256.758 54.3885 255.004L49.2655 260.625C48.9964 262.397 48.6658 264.085 48.2734 265.691Z" fill="#8B7F7C"/>
<path d="M49.1515 260.518L41.1729 251.711L41.2156 251.611C40.4656 252.656 39.8243 253.773 39.3013 254.945L48.406 264.536C48.7179 263.136 48.9615 261.781 49.1515 260.518Z" fill="#8B7F7C"/>
<path d="M39.2148 255.143L39.2152 255.143C39.2295 255.111 39.2419 255.075 39.2563 255.043L39.2148 255.143Z" fill="#8B7F7C"/>
<path d="M38.7712 256.224L38.7305 256.324C38.7434 256.289 38.7584 256.258 38.7715 256.224L38.7712 256.224Z" fill="#8B7F7C"/>
<path d="M48.353 264.769L39.215 255.144C39.0606 255.494 38.9126 255.854 38.771 256.224L48.1106 265.787C48.1955 265.446 48.2763 265.107 48.353 264.769Z" fill="#8B7F7C"/>
<path d="M54.663 264.127C54.8449 262.916 54.9441 261.695 54.9598 260.471L48.2017 265.985C47.934 267.054 47.6393 268.082 47.3179 269.069L54.6486 264.022L54.663 264.127Z" fill="#8B7F7C"/>
<path d="M37.5593 264.812L44.9561 274.359C45.5639 273.197 46.1006 272 46.5635 270.774L37.5378 261.396C37.4484 262.568 37.4385 263.745 37.5081 264.919L37.5593 264.812Z" fill="#8B7F7C"/>
<path d="M49.9174 248.154L49.9837 248.125C48.3638 247.269 46.6101 247.361 44.9292 248.229L49.7737 254.739C50.0344 250.875 49.9192 248.193 49.9174 248.154Z" fill="#8B7F7C"/>
<path d="M46.6027 271.084C46.1781 272.187 45.6931 273.266 45.1499 274.317L52.5903 270.508L52.5978 270.614C53.1584 269.677 53.5967 268.674 53.9023 267.628C54.0206 267.216 54.1284 266.803 54.2259 266.39L46.7341 270.736C46.6904 270.852 46.6472 270.969 46.6027 271.084Z" fill="#8B7F7C"/>
<path d="M49.7535 255.026L44.7979 248.366L44.8444 248.271C43.426 249.083 42.2071 250.196 41.2754 251.53L49.1889 260.266C49.4628 258.395 49.6401 256.616 49.7535 255.026Z" fill="#8B7F7C"/>
<path d="M46.6449 270.559C47.1966 269.07 47.6669 267.553 48.0536 266.014L38.6908 256.427C38.468 257.026 38.2632 257.648 38.0767 258.295C37.8179 259.223 37.6451 260.172 37.5605 261.131L46.6378 270.563L46.6449 270.559Z" fill="#8B7F7C"/>
<path d="M56.2613 280.903C55.1353 282.07 53.8361 283.343 52.4023 284.624L59.8303 283.548L59.7921 283.637C60.4111 282.42 60.8537 281.124 61.1068 279.785L61.0753 279.873L56.2613 280.903Z" fill="#8B7F7C"/>
<path d="M60.8836 275.896C60.8625 275.837 60.84 275.78 60.8173 275.723C60.5471 276.07 58.9476 278.101 56.459 280.699L61.1222 279.701C61.3691 278.433 61.287 277.124 60.8836 275.896Z" fill="#8B7F7C"/>
<path d="M45.0297 290.227C44.6784 290.445 44.3283 290.656 43.9795 290.859L52.4503 292.223L52.3888 292.312C52.9385 291.896 53.4682 291.463 53.978 291.013L45.0032 290.269L45.0297 290.227Z" fill="#8B7F7C"/>
<path d="M48.1465 288.101L56.7894 288.118L56.7383 288.209C57.9162 286.838 58.9258 285.334 59.7461 283.729L52.1766 284.825C50.8273 286.02 49.4839 287.112 48.1465 288.101Z" fill="#8B7F7C"/>
<path d="M45.2329 290.099L54.1329 290.837L54.0762 290.927C54.9968 290.11 55.8606 289.232 56.6617 288.299L47.9019 288.281C47.0063 288.936 46.1166 289.542 45.2329 290.099Z" fill="#8B7F7C"/>
<path d="M34.3321 294.456C34.3952 294.393 34.4619 294.324 34.5277 294.257C36.3425 293.971 38.1158 293.47 39.8094 292.764L40.0513 286.418C40.1231 286.257 40.1928 286.094 40.2605 285.93L40.0031 292.684C41.2204 292.172 42.4056 291.589 43.5523 290.937L42.7257 279.14C42.7895 279.107 42.8536 279.074 42.9197 279.039L43.7452 290.821L43.7533 290.823C45.1381 290.024 46.4784 289.152 47.7684 288.211L46.8684 276.602C46.9321 276.556 46.9957 276.51 47.0595 276.463L47.9595 288.072C48.245 287.862 48.526 287.652 48.8026 287.441L48.0602 275.689C48.1237 275.637 48.1873 275.585 48.2507 275.533L48.9937 287.294C50.1363 286.413 51.1976 285.522 52.1579 284.67L51.6909 272.852L51.7879 272.802C51.4563 272.888 51.1192 272.989 50.7792 273.1C51.4185 272.377 51.9936 271.602 52.4979 270.782L44.9863 274.627C44.4664 275.604 43.8816 276.546 43.2357 277.447C43.1015 277.572 42.9672 277.698 42.8349 277.828L42.8448 277.97C42.7835 278.049 42.7225 278.13 42.6605 278.208L42.6471 278.018C42.5523 278.114 42.4599 278.216 42.3661 278.315C43.3174 277.14 44.1522 275.877 44.8591 274.544L37.5164 265.066C37.5665 265.913 37.6501 266.766 37.7578 267.612C37.0761 266.515 36.2482 265.515 35.2964 264.637L35.3542 264.71L33.6572 269.285C34.0506 270.85 34.4418 272.617 34.768 274.501L37.7837 267.811C37.7975 267.915 37.8121 268.019 37.8266 268.123L34.8182 274.797C35.1158 276.564 35.3289 278.272 35.4575 279.919L39.0683 274.308C39.0889 274.388 39.1095 274.469 39.1301 274.548L35.4804 280.22C35.5599 281.319 35.6008 282.387 35.6034 283.423L40.0172 277.662C40.0407 277.738 40.0637 277.811 40.0866 277.884L35.6261 283.706L35.6044 283.662C35.6031 284.073 35.5956 284.478 35.5819 284.878L40.5606 279.332C40.5871 279.409 40.6116 279.48 40.6343 279.545L35.5694 285.187C35.5642 285.311 35.5596 285.436 35.5532 285.559C35.494 286.737 35.3699 287.912 35.1816 289.077L35.662 288.596C35.571 288.783 35.4824 288.967 35.3961 289.148L35.1227 289.422C35.0913 289.6 35.0556 289.774 35.0212 289.95C34.9203 290.169 34.8231 290.383 34.7295 290.591C34.8198 290.191 34.9041 289.789 34.976 289.383L25.0317 282.615C27.6261 289.181 32.5116 295.428 32.8243 295.824C33.0782 295.355 33.3089 294.872 33.5207 294.38C33.5823 294.374 33.6438 294.368 33.7053 294.362C33.6799 294.422 33.6535 294.482 33.6276 294.542C33.5966 294.545 33.5652 294.55 33.5342 294.553C33.5583 294.56 33.5872 294.568 33.6134 294.575C33.4642 294.919 33.3096 295.258 33.1438 295.584C33.3608 295.391 33.6914 295.086 34.0867 294.699C36.425 295.29 42.7245 296.552 48.1184 294.687L39.8542 292.908C38.0857 293.649 36.2307 294.169 34.3321 294.456ZM40.1393 284.11L40.3375 283.912L40.3261 284.209L40.128 284.408L40.1393 284.11Z" fill="#8B7F7C"/>
<path d="M60.7184 275.63L60.7883 275.65C60.0927 273.968 58.6827 272.932 56.8285 272.54L56.3628 280.611C59.0546 277.8 60.6949 275.661 60.7184 275.63Z" fill="#8B7F7C"/>
<path d="M43.3831 291.2C42.3451 291.781 41.2759 292.307 40.1802 292.773L48.366 294.535L48.3035 294.621C49.3393 294.253 50.3238 293.757 51.2334 293.144C51.5898 292.902 51.9389 292.652 52.2807 292.395L43.7089 291.015C43.6003 291.077 43.4915 291.139 43.3831 291.2Z" fill="#8B7F7C"/>
<path d="M52.3489 284.499C53.7655 283.232 55.0489 281.974 56.1617 280.82L56.6381 272.564L56.7351 272.52C55.1193 272.25 53.4631 272.338 51.8857 272.777L52.3489 284.499Z" fill="#8B7F7C"/>
<path d="M35.2312 264.579C34.281 263.694 33.1194 263.062 31.8551 262.741C31.7938 262.728 31.7328 262.716 31.6719 262.704C31.8241 263.116 32.7016 265.54 33.5872 269.01L35.2312 264.579Z" fill="#8B7F7C"/>
<path d="M34.6754 274.731L24.3359 268.794L24.3454 268.687C23.9585 269.909 23.6975 271.168 23.5664 272.443L35.2215 278.779C35.0809 277.353 34.8891 275.989 34.6754 274.731Z" fill="#8B7F7C"/>
<path d="M23.5474 272.658L23.5478 272.658C23.5513 272.623 23.552 272.585 23.5557 272.55L23.5474 272.658Z" fill="#8B7F7C"/>
<path d="M23.4621 273.821L23.4546 273.929C23.4562 273.893 23.4607 273.858 23.4625 273.821L23.4621 273.821Z" fill="#8B7F7C"/>
<path d="M35.2449 279.018L23.5472 272.658C23.5096 273.038 23.4814 273.426 23.4624 273.821L35.3324 280.06C35.3066 279.71 35.2774 279.362 35.2449 279.018Z" fill="#8B7F7C"/>
<path d="M35.4191 285.277L23.9053 279.117C24.1865 280.26 24.5449 281.382 24.9778 282.477L24.993 282.36L35.0105 289.178C35.2254 287.887 35.3618 286.584 35.4191 285.277Z" fill="#8B7F7C"/>
<path d="M31.541 262.739L31.5949 262.69C29.7868 262.372 28.1477 262.995 26.8203 264.335L33.4615 269.045C32.5023 265.29 31.5547 262.775 31.541 262.739Z" fill="#8B7F7C"/>
<path d="M33.5326 269.325L26.7392 264.507L26.7537 264.402C25.6585 265.608 24.8469 267.039 24.3774 268.592L34.6327 274.48C34.3088 272.618 33.9217 270.872 33.5326 269.325Z" fill="#8B7F7C"/>
<path d="M35.4296 285.048C35.4892 283.463 35.4624 281.876 35.3495 280.295L23.4499 274.04C23.425 274.678 23.4249 275.333 23.4496 276.005C23.4933 276.966 23.6255 277.922 23.8445 278.859L35.4242 285.054L35.4296 285.048Z" fill="#8B7F7C"/>
<path d="M25.5459 296.234H414.54V301.741C414.54 304.057 413.61 306.278 411.955 307.916C410.3 309.553 408.055 310.473 405.714 310.473H34.3721C32.0313 310.473 29.7863 309.553 28.131 307.916C26.4758 306.278 25.5459 304.057 25.5459 301.741V296.234Z" fill="#2F2E41"/>
<path d="M414.54 291.76H25.5459V299.489H414.54V291.76Z" fill="#3F3D56"/>
<path d="M99.7203 50.2051L102.562 51.9881L100.837 48.8843C101.325 48.4985 101.93 48.2849 102.555 48.2774C102.571 48.2774 102.586 48.2775 102.601 48.2778C102.798 48.281 102.996 48.2665 103.191 48.2347L104.154 48.8389L103.741 48.0962C104.423 47.8608 105.013 47.418 105.426 46.8312L107.15 47.9127L106.061 45.9538C106.519 45.3685 107.104 44.8916 107.772 44.5576C108.44 44.2235 109.174 44.0408 109.923 44.0225C111.715 44.0225 113.312 45.0772 114.343 46.7206C114.648 47.2123 115.078 47.6155 115.592 47.8892C116.105 48.1629 116.682 48.2975 117.265 48.2792C117.297 48.278 117.329 48.2774 117.361 48.2774C119.34 48.2774 120.944 50.4973 120.944 53.2357C120.944 55.974 119.34 58.1939 117.361 58.1939C116.926 58.1923 116.498 58.0862 116.113 57.8848C115.439 57.5608 114.703 57.3856 113.954 57.3711C113.205 57.3566 112.462 57.5033 111.776 57.8009C111.196 58.0585 110.569 58.1924 109.933 58.1939C109.298 58.1953 108.669 58.0643 108.089 57.8093C107.408 57.5174 106.672 57.3736 105.93 57.3878C105.189 57.402 104.459 57.5738 103.79 57.8915C103.409 58.0887 102.985 58.1924 102.555 58.1939C100.576 58.1939 98.9721 55.974 98.9721 53.2357C98.9605 52.1794 99.2178 51.1372 99.7203 50.2051Z" fill="#F2F2F2"/>
<path d="M23.2369 59.7637L26.0788 61.5467L24.3533 58.4429C24.842 58.0571 25.4467 57.8435 26.0719 57.836C26.0871 57.836 26.1024 57.8362 26.1176 57.8364C26.3151 57.8396 26.5124 57.8251 26.7073 57.7933L27.6703 58.3975L27.2575 57.6549C27.9399 57.4194 28.5296 56.9766 28.9424 56.3898L30.6662 57.4713L29.5771 55.5124C30.0358 54.9271 30.6203 54.4502 31.2882 54.1162C31.9562 53.7821 32.691 53.5993 33.4392 53.5811C35.2318 53.5811 36.8286 54.6358 37.8595 56.2792C38.1642 56.7709 38.595 57.1741 39.1082 57.4478C39.6213 57.7215 40.1985 57.8561 40.7812 57.8378C40.8132 57.8366 40.8454 57.836 40.8776 57.836C42.8565 57.836 44.4608 60.0559 44.4608 62.7943C44.4608 65.5326 42.8566 67.7525 40.8776 67.7525C40.4424 67.7509 40.0141 67.6448 39.6295 67.4434C38.9559 67.1195 38.2192 66.9442 37.4703 66.9297C36.7215 66.9152 35.9784 67.0619 35.2925 67.3595C34.713 67.6171 34.0852 67.7511 33.4498 67.7525C32.8145 67.754 32.186 67.6229 31.6053 67.3679C30.9247 67.076 30.1887 66.9322 29.447 66.9464C28.7053 66.9606 27.9754 67.1324 27.3067 67.4501C26.9255 67.6473 26.502 67.751 26.0718 67.7525C24.0929 67.7525 22.4887 65.5326 22.4887 62.7943C22.4771 61.738 22.7344 60.6958 23.2369 59.7637Z" fill="#F2F2F2"/>
<path d="M125.841 243.291L125.344 243.782C125.344 243.782 125.51 249.184 125.675 250.33C125.841 251.476 126.502 253.44 126.006 254.913C125.51 256.387 125.344 257.532 125.51 257.696C125.675 257.86 125.344 258.515 125.344 258.515L126.668 257.696L128.819 252.785L127.826 247.547L125.841 243.291Z" fill="#8B7F7C"/>
<path opacity="0.1" d="M125.841 243.291L125.344 243.782C125.344 243.782 125.51 249.184 125.675 250.33C125.841 251.476 126.502 253.44 126.006 254.913C125.51 256.387 125.344 257.532 125.51 257.696C125.675 257.86 125.344 258.515 125.344 258.515L126.668 257.696L128.819 252.785L127.826 247.547L125.841 243.291Z" fill="black"/>
<path d="M134.61 294.2C134.61 294.2 134.61 292.399 134.279 292.072C133.948 291.744 133.452 290.599 132.79 290.599C132.128 290.599 129.812 291.253 129.812 291.417C129.83 291.928 129.716 292.435 129.481 292.89C129.15 293.381 127.33 295.346 129.15 295.673C129.755 295.772 130.374 295.75 130.97 295.609C131.567 295.469 132.129 295.212 132.624 294.855C132.79 294.691 133.452 294.527 133.617 294.691C133.782 294.855 134.61 294.2 134.61 294.2Z" fill="#8B7F7C"/>
<path d="M139.242 291.255L140.235 293.056C140.235 293.056 140.566 294.693 141.062 294.857H141.559C141.559 294.857 142.055 296.657 143.213 296.494C144.371 296.33 145.695 295.675 145.695 295.348C145.695 295.02 145.695 294.038 145.199 293.711C144.503 293.149 143.84 292.547 143.213 291.91L142.386 291.092L139.242 291.255Z" fill="#8B7F7C"/>
<path d="M126.545 231.292C126.226 231.453 125.952 231.687 125.744 231.974C125.536 232.262 125.401 232.595 125.35 232.945C125.258 234.114 126.425 235.215 126.05 236.327C125.836 236.958 125.172 237.367 124.981 238.005C124.88 238.514 124.956 239.042 125.195 239.503C125.456 240.136 125.775 240.744 126.146 241.32C126.843 242.404 127.751 243.431 127.937 244.703C127.989 244.925 127.986 245.156 127.93 245.377C127.874 245.599 127.766 245.804 127.614 245.975C127.95 245.724 128.334 245.543 128.743 245.444C130.434 244.885 132.005 244.019 133.376 242.891C133.874 242.545 134.249 242.052 134.447 241.482C134.7 240.477 133.928 239.471 134.002 238.437C134.05 237.776 134.435 237.192 134.654 236.565C134.844 235.941 134.904 235.286 134.831 234.638C134.759 233.991 134.555 233.364 134.232 232.797C133.964 232.248 133.586 231.758 133.121 231.358C132.656 230.958 132.114 230.656 131.527 230.469C130.624 230.261 129.683 230.288 128.794 230.547C128.017 230.707 127.262 230.957 126.545 231.292Z" fill="#2F2E41"/>
<path d="M127.477 240.37C127.841 239.7 128.38 239.14 129.039 238.747C129.697 238.354 130.45 238.143 131.218 238.136C133.866 238.136 133.369 237.973 133.369 237.973L132.542 241.247L130.888 242.884L127.477 240.37Z" fill="#8B7F7C"/>
<path d="M128.157 236.907C128.157 236.907 129.646 239.363 128.653 240.345C127.66 241.327 128.157 242.309 128.322 242.473C128.488 242.637 133.12 242.964 133.12 242.964L133.286 240.672L133.782 238.708C133.782 238.708 131.135 238.217 131.466 237.071C131.797 235.925 128.157 236.907 128.157 236.907Z" fill="#FBBEBE"/>
<path opacity="0.1" d="M128.157 236.907C128.157 236.907 129.646 239.363 128.653 240.345C127.66 241.327 128.157 242.309 128.322 242.473C128.488 242.637 133.12 242.964 133.12 242.964L133.286 240.672L133.782 238.708C133.782 238.708 131.135 238.217 131.466 237.071C131.797 235.925 128.157 236.907 128.157 236.907Z" fill="black"/>
<path d="M139.739 260.152C139.562 260.714 139.341 261.261 139.077 261.789C138.912 261.953 138.416 260.643 138.416 260.643L138.912 259.497L139.739 260.152Z" fill="#FBBEBE"/>
<path d="M137.836 252.705L138.497 256.47H128.57L129.067 252.705H137.836Z" fill="#FBBEBE"/>
<path d="M129.977 238.217C131.713 238.217 133.121 236.825 133.121 235.107C133.121 233.39 131.713 231.997 129.977 231.997C128.241 231.997 126.833 233.39 126.833 235.107C126.833 236.825 128.241 238.217 129.977 238.217Z" fill="#FBBEBE"/>
<path d="M130.639 241.492C130.639 241.492 128.819 241.656 128.819 241.328C128.819 241.001 128.654 240.019 128.323 240.183C127.992 240.346 125.841 240.51 126.006 241.001C126.172 241.492 126.503 242.474 126.172 242.474C126.029 242.503 125.893 242.561 125.773 242.643C125.653 242.725 125.552 242.831 125.474 242.953C125.397 243.076 125.345 243.213 125.323 243.355C125.301 243.498 125.308 243.644 125.345 243.784C125.51 244.602 127.33 249.513 127.33 249.513C127.33 249.513 127.495 251.15 127.992 251.641C128.194 251.899 128.303 252.216 128.303 252.542C128.303 252.867 128.194 253.184 127.992 253.442C127.661 253.769 128.819 254.097 129.315 254.751C129.812 255.406 133.617 254.915 133.783 254.751C133.948 254.588 137.919 254.588 138.25 254.26C138.581 253.933 138.085 252.951 138.085 252.951C138.085 252.951 137.919 251.477 138.085 250.986C138.25 250.495 137.423 242.474 136.926 241.983C136.43 241.492 138.415 240.019 138.415 240.019C138.415 240.019 138.085 238.709 135.934 238.546C135.934 238.546 135.272 237.563 134.61 237.563C133.948 237.563 132.511 238.325 132.511 238.325C132.511 238.325 132.128 240.51 131.632 240.674C131.239 240.864 130.899 241.145 130.639 241.492Z" fill="#8B7F7C"/>
<path d="M137.257 239.526L138.415 240.017C138.415 240.017 141.724 250.166 141.394 252.131C141.063 254.095 140.235 260.807 139.739 260.807C139.243 260.807 138.25 259.824 138.25 259.824V258.187C138.25 257.86 137.754 256.878 138.084 256.878C138.415 256.878 138.912 256.551 138.581 256.223C138.25 255.896 137.919 255.405 138.25 254.914C138.581 254.422 138.746 254.259 138.581 253.768C138.415 253.277 138.084 252.786 138.415 252.458C138.746 252.131 137.588 250.494 137.588 250.494L135.768 243.291L136.099 240.345L137.257 239.526Z" fill="#8B7F7C"/>
<path d="M137.919 255.078C137.919 255.078 131.631 254.587 130.804 254.587C129.977 254.587 128.121 253.816 128.121 253.816C128.121 253.816 123.359 258.516 125.013 266.209C126.668 273.903 126.999 283.397 127.991 286.18C128.666 288.164 129.219 290.187 129.646 292.237C129.646 292.237 131.301 289.29 134.444 292.564C134.444 292.564 134.775 290.109 134.279 289.127C133.782 288.144 133.121 282.906 133.121 282.906C133.121 282.906 131.962 274.558 131.962 273.576C131.962 272.594 131.301 264.245 131.466 264.081C131.631 263.918 132.459 270.466 132.624 271.611C132.79 272.757 133.286 281.597 133.782 282.579C134.279 283.561 136.595 291.418 137.919 291.909C139.242 292.401 143.71 291.746 143.544 291.418C143.379 291.091 142.221 289.29 141.89 288.799L140.566 286.835L137.422 276.195L138.911 263.263C138.911 263.263 139.739 254.915 137.919 255.078Z" fill="#2F2E41"/>
<path d="M131.892 234.698H127.86C127.689 234.698 127.524 234.638 127.394 234.528C127.264 234.418 127.178 234.266 127.151 234.098L126.75 231.588H133.038L132.476 234.229C132.447 234.362 132.374 234.481 132.268 234.566C132.161 234.652 132.029 234.698 131.892 234.698Z" fill="#2F2E41"/>
<path d="M39.2124 248.599C40.1748 246.937 40.6721 245.051 40.6531 243.136C40.6531 238.199 37.5627 234.196 33.7506 234.196C29.9385 234.196 26.8482 238.199 26.8482 243.136C26.8291 245.051 27.3264 246.937 28.2889 248.599C27.3442 250.268 26.8482 252.149 26.8482 254.062C26.8482 255.975 27.3442 257.856 28.2889 259.526C27.3442 261.195 26.8482 263.076 26.8482 264.989C26.8482 266.902 27.3442 268.783 28.2889 270.452C27.3442 272.121 26.8482 274.002 26.8482 275.915C26.8482 277.828 27.3442 279.709 28.2889 281.378C27.3264 283.04 26.8291 284.926 26.8482 286.842C26.8482 291.779 29.9385 295.781 33.7506 295.781C37.5627 295.781 40.6531 291.779 40.6531 286.842C40.6721 284.926 40.1748 283.04 39.2124 281.378C40.157 279.709 40.6531 277.828 40.6531 275.915C40.6531 274.002 40.157 272.121 39.2124 270.452C40.157 268.783 40.6531 266.902 40.6531 264.989C40.6531 263.076 40.157 261.195 39.2124 259.526C40.157 257.856 40.6531 255.975 40.6531 254.062C40.6531 252.149 40.157 250.268 39.2124 248.599Z" fill="#3F3D56"/>
<path d="M33.7511 241.149C37.5632 241.149 40.6535 237.147 40.6535 232.209C40.6535 227.272 37.5632 223.27 33.7511 223.27C29.939 223.27 26.8486 227.272 26.8486 232.209C26.8486 237.147 29.939 241.149 33.7511 241.149Z" fill="#3F3D56"/>
<path d="M33.7511 230.222C37.5632 230.222 40.6535 226.22 40.6535 221.283C40.6535 216.345 37.5632 212.343 33.7511 212.343C29.939 212.343 26.8486 216.345 26.8486 221.283C26.8486 226.22 29.939 230.222 33.7511 230.222Z" fill="#3F3D56"/>
<path d="M59.59 146.51C60.533 145.322 61.3919 144.071 62.1606 142.766L44.0238 139.819L63.6392 139.963C65.5209 135.913 66.5474 131.525 66.656 127.068C66.7645 122.612 65.9529 118.18 64.2706 114.045L37.9542 127.551L62.224 109.901C59.9503 106.013 56.8918 102.631 53.2391 99.9639C49.5865 97.2969 45.4179 95.4027 40.993 94.3993C36.5681 93.3958 31.9818 93.3045 27.5197 94.1311C23.0577 94.9577 18.8154 96.6845 15.0573 99.2039C11.2992 101.723 8.10569 104.981 5.67576 108.775C3.24582 112.569 1.63151 116.817 0.933389 121.255C0.235264 125.693 0.468281 130.225 1.61793 134.57C2.76757 138.915 4.80921 142.979 7.61567 146.51C6.14577 148.358 4.88157 150.358 3.84497 152.475L27.3877 164.576L2.28458 156.241C0.521966 161.396 0.0863665 166.904 1.0172 172.268C1.94804 177.631 4.21593 182.681 7.61566 186.959C3.77969 191.784 1.39344 197.579 0.729747 203.683C0.0660542 209.786 1.1517 215.951 3.86256 221.473C6.57343 226.995 10.8001 231.651 16.0593 234.908C21.3186 238.165 27.3981 239.893 33.6028 239.893C39.8076 239.893 45.8871 238.165 51.1463 234.908C56.4056 231.651 60.6322 226.995 63.3431 221.473C66.0539 215.951 67.1396 209.786 66.4759 203.683C65.8122 197.579 63.426 191.784 59.59 186.959C64.1736 181.193 66.6656 174.07 66.6656 166.734C66.6656 159.398 64.1736 152.276 59.59 146.51L59.59 146.51Z" fill="#F2F2F2"/>
<path d="M0.540078 166.735C0.528662 174.072 3.02186 181.199 7.61568 186.959C3.7797 191.784 1.39345 197.58 0.729759 203.684C0.0660665 209.787 1.15171 215.952 3.86258 221.474C6.57344 226.996 10.8001 231.652 16.0593 234.909C21.3186 238.166 27.3981 239.894 33.6028 239.894C39.8076 239.894 45.8871 238.166 51.1463 234.909C56.4056 231.652 60.6322 226.996 63.3431 221.474C66.054 215.952 67.1396 209.787 66.4759 203.684C65.8122 197.58 63.426 191.784 59.59 186.959C64.0214 181.394 0.540078 163.064 0.540078 166.735Z" fill="#F2F2F2"/>
<path d="M59.59 146.51C60.533 145.322 61.3919 144.071 62.1606 142.766L44.0238 139.819L63.6392 139.963C65.5209 135.913 66.5474 131.525 66.656 127.068C66.7645 122.612 65.9529 118.18 64.2706 114.045L37.9542 127.551L62.224 109.901C59.9503 106.013 56.8918 102.631 53.2391 99.9639C49.5865 97.2969 45.4179 95.4027 40.993 94.3993C36.5681 93.3958 31.9818 93.3045 27.5197 94.1311C23.0577 94.9577 18.8154 96.6845 15.0573 99.2039C11.2992 101.723 8.10569 104.981 5.67576 108.775C3.24582 112.569 1.63151 116.817 0.933389 121.255C0.235264 125.693 0.468281 130.225 1.61793 134.57C2.76757 138.915 4.80921 142.979 7.61567 146.51C6.14577 148.358 4.88157 150.358 3.84497 152.475L27.3877 164.576L2.28458 156.241C0.521966 161.396 0.0863665 166.904 1.0172 172.268C1.94804 177.631 4.21593 182.681 7.61566 186.959C3.77969 191.784 1.39344 197.579 0.729747 203.683C0.0660542 209.786 1.1517 215.951 3.86256 221.473C6.57343 226.995 10.8001 231.651 16.0593 234.908C21.3186 238.165 27.3981 239.893 33.6028 239.893C39.8076 239.893 45.8871 238.165 51.1463 234.908C56.4056 231.651 60.6322 226.995 63.3431 221.473C66.0539 215.951 67.1396 209.786 66.4759 203.683C65.8122 197.579 63.426 191.784 59.59 186.959C64.1736 181.193 66.6656 174.07 66.6656 166.734C66.6656 159.398 64.1736 152.276 59.59 146.51L59.59 146.51Z" fill="#57B894"/>
<path opacity="0.1" d="M0.540078 166.735C0.528662 174.072 3.02186 181.199 7.61568 186.959C3.7797 191.784 1.39345 197.58 0.729759 203.684C0.0660665 209.787 1.15171 215.952 3.86258 221.474C6.57344 226.996 10.8001 231.652 16.0593 234.909C21.3186 238.166 27.3981 239.894 33.6028 239.894C39.8076 239.894 45.8871 238.166 51.1463 234.909C56.4056 231.652 60.6322 226.996 63.3431 221.474C66.054 215.952 67.1396 209.787 66.4759 203.684C65.8122 197.58 63.426 191.784 59.59 186.959C64.0214 181.394 0.540078 163.064 0.540078 166.735Z" fill="black"/>
<path d="M238.81 144.715L222.405 160.945L214.632 153.256L211.606 156.25L222.395 166.923L241.837 147.709L238.81 144.715Z" fill="#57B894"/>
</g>
<defs>
<clipPath id="clip0_608_125334">
<rect width="414" height="310" fill="white" transform="translate(0.540039 0.473633)"/>
</clipPath>
</defs>
</svg>

